<svg xmlns="http://www.w3.org/2000/svg" viewBox="0 0 48 48"><path fill="#FF5252" d="M47 16c-1.156 1.29-3.906 5-11 5-2.684 0-9.27-.984-11-1-1.977-.016-14 .344-14 11 0 8.34 6.004 8.777 8 9 9.836 0 11-4.488 11-9 0-1.543-.602-3.281-1.934-4.543C27.008 25.453 26.363 25 24 25c-1.148 0-5 .617-5 4 0 1.5 2 1.824 2 3.652C21 34.156 19.746 35 18.402 35c-1.77 0-3.398-1.375-3.398-3.77C15.004 27.406 18.25 23 24 23c7.008 0 8.445 3.645 10.55 3.922 3.43.437 7.177-.922 9.348-.922-2.937 1.277-4.296 7-8.898 7 0 3.066-3.168 6.426-4 7 2.043 0 3.652-.645 5-1-1.02.746-4.926 3-17 3-4.219 0-14-.887-14-10 0-9.703 7.973-14 20-14-1.406-.766-5.059-2-8-2-2.191-.031-4.688 1.16-6.664 2.047-2 .898-4.07 1.027-6.27.953-.668-.023-2.093-.414-3.066-1 7.547-1.629 6.54-7.91 16-11-3.152 2.16-5.05 4.93-5 5 7.477-4.082 12.98-5.313 18-6-5.145 1.68-8.719 4.063-13 7 0 0 3.09-1 7-1 6.645 0 11.398 6 16 6 2.277 0 7-2.094 7-2z"></path><path fill="#D50000" d="M15.102 31.23c0 2.395 1.628 3.77 3.402 3.77 1.344 0 2.598-.844 2.598-2.348 0-1.828-2-2.152-2-3.652 0-4.316 3.941-5.555 5-6-5.75 0-9 4.406-9 8.23z"></path><path fill="#D50000" d="M11 31c0-12.375 12.023-13.016 14-13 1.73.016 6.598-.305 9.594-1.996C31.539 14.258 28.176 12 24.102 12c-3.91 0-7 1-7 1 4.28-2.938 7.855-5.32 13-7-5.02.688-10.524 1.918-18 6-.051-.07 1.847-2.84 5-5-9.461 3.09-8.454 9.371-16 11 .972.586 2.402.977 3.066 1 2.2.074 4.27-.055 6.27-.953 1.976-.887 4.472-2.078 6.664-2.047 2.941 0 6.593 1.234 8 2C13.074 18 5 22.297 5 32c0 9.04 9.727 9.984 13.996 10C16.992 41.773 11 39.336 11 31z"></path></svg>